<svg xmlns="http://www.w3.org/2000/svg" width="200" height="44" viewBox="0 0 200 44" fill="none">
  <!-- Icon background -->
  <rect x="2" y="6" width="32" height="32" rx="10" fill="#f1f5f9"/>
  <!-- Utensils Crossed (Lucide icon) -->
  <g transform="translate(6, 10)" stroke="#1e293b" stroke-width="2" stroke-linecap="round" stroke-linejoin="round" fill="none">
    <path d="m16 2-2.3 2.3a3 3 0 0 0 0 4.2l1.8 1.8a3 3 0 0 0 4.2 0L22 8"/>
    <path d="M15 15 3.3 3.3a4.2 4.2 0 0 0 0 6l7.3 7.3c.7.7 2 .7 2.8 0L15 15Zm0 0 7 7"/>
    <path d="m2.1 21.8 6.4-6.3"/>
    <path d="m19 5-7 7"/>
  </g>
  <!-- Text: Meal Balancer -->
  <text x="40" y="22" font-family="Inter, system-ui, -apple-system, sans-serif" font-size="14.5" font-weight="800" fill="#f1f5f9" letter-spacing="-0.3">Meal Balancer</text>
  <!-- Subtitle -->
  <text x="40" y="35" font-family="Inter, system-ui, -apple-system, sans-serif" font-size="9" font-weight="500" fill="#94a3b8">by Dt. Bhakti Shrivastava</text>
</svg>


